<svg width="219" height="76" viewBox="0 0 219 76" fill="none" xmlns="http://www.w3.org/2000/svg">
<g filter="url(#filter0_d)">
<path d="M203.376 68H15.0969C11.1758 68 8 64.8251 8 60.905V15.095C8 11.1749 11.1758 8 15.0969 8H203.376C207.297 8 210.473 11.1749 210.473 15.095V60.905C210.473 64.8251 207.297 68 203.376 68Z" fill="black"/>
<path d="M209.144 60.9049C209.144 64.0799 206.584 66.6393 203.408 66.6393H15.1294C11.9536 66.6393 9.36108 64.0799 9.36108 60.9049V15.095C9.36108 11.92 11.9536 9.32825 15.1294 9.32825H203.408C206.584 9.32825 209.176 11.8876 209.176 15.095L209.144 60.9049Z" fill="black"/>
<path d="M53.2065 37.676C53.1741 32.8488 57.16 30.4838 57.3545 30.3866C55.086 27.0821 51.5862 26.6285 50.3224 26.5961C47.3734 26.2721 44.5217 28.378 42.9986 28.378C41.4755 28.378 39.1423 26.6285 36.647 26.6933C33.4388 26.7581 30.4251 28.6047 28.7724 31.4881C25.3697 37.3844 27.8974 46.0345 31.1704 50.7646C32.7907 53.0972 34.7027 55.689 37.1979 55.5918C39.6284 55.4946 40.5357 54.0367 43.4847 54.0367C46.4012 54.0367 47.2438 55.5918 49.8039 55.527C52.4287 55.4946 54.0815 53.1944 55.6369 50.8294C57.5165 48.1728 58.2618 45.5162 58.2942 45.3866C58.2942 45.3866 53.2713 43.4752 53.2065 37.676ZM48.4104 23.4536C49.7066 21.8013 50.614 19.5983 50.3548 17.3304C48.4428 17.4276 46.0772 18.6587 44.7161 20.2462C43.5171 21.6717 42.4153 23.9719 42.7069 26.1425C44.8457 26.3045 47.0494 25.0734 48.4104 23.4536Z" fill="white"/>
<path d="M203.376 8H102.528L142.031 68H203.376C207.297 68 210.473 64.8251 210.473 60.905V15.095C210.473 11.1749 207.297 8 203.376 8Z" fill="url(#paint0_linear)"/>
<path d="M88.5289 55.2678H85.1263L83.2467 49.4039H76.7655L74.9832 55.2678H71.6778L78.0942 35.311H82.0801L88.5289 55.2678ZM82.6958 46.9417L81.0107 41.7257C80.8163 41.2073 80.4922 39.9438 80.0061 37.9676H79.9413C79.7469 38.8099 79.4228 40.0734 79.0016 41.7257L77.3488 46.9417H82.6958ZM105.024 47.8812C105.024 50.3434 104.343 52.2549 103.014 53.6803C101.815 54.9438 100.357 55.5918 98.5748 55.5918C96.6628 55.5918 95.3018 54.9114 94.4592 53.5507V61.0993H91.2834V45.581C91.2834 44.0583 91.251 42.4708 91.1538 40.851H93.9731L94.1676 43.1188H94.2324C95.3018 41.4017 96.9221 40.527 99.0933 40.527C100.778 40.527 102.204 41.2073 103.338 42.5356C104.473 43.9287 105.024 45.7106 105.024 47.8812ZM101.783 48.0108C101.783 46.6177 101.459 45.4514 100.843 44.5443C100.163 43.6047 99.2229 43.1188 98.0563 43.1188C97.2785 43.1188 96.5656 43.378 95.9175 43.8963C95.2694 44.4147 94.8481 45.095 94.6536 45.9698C94.5564 46.2937 94.524 46.6177 94.4916 46.9417V49.3391C94.4916 50.3758 94.8157 51.2829 95.4638 51.9957C96.1119 52.7084 96.9545 53.0648 97.9591 53.0648C99.1581 53.0648 100.098 52.6112 100.778 51.6717C101.459 50.7646 101.783 49.5335 101.783 48.0108ZM121.615 47.8812C121.615 50.3434 120.935 52.2549 119.606 53.6803C118.407 54.9438 116.949 55.5918 115.167 55.5918C113.255 55.5918 111.894 54.9114 111.051 53.5507V61.0993H107.843V45.581C107.843 44.0583 107.81 42.4708 107.713 40.851H110.533L110.727 43.1188H110.792C111.861 41.4017 113.482 40.527 115.653 40.527C117.338 40.527 118.764 41.2073 119.898 42.5356C121.032 43.9287 121.615 45.7106 121.615 47.8812ZM118.342 48.0108C118.342 46.6177 118.018 45.4514 117.403 44.5443C116.722 43.6047 115.782 43.1188 114.616 43.1188C113.838 43.1188 113.125 43.378 112.477 43.8963C111.829 44.4147 111.408 45.095 111.213 45.9698C111.116 46.3585 111.051 46.6825 111.051 46.9417V49.3391C111.051 50.3758 111.375 51.2829 112.023 51.9957C112.671 52.7084 113.514 53.0648 114.519 53.0648C115.718 53.0648 116.657 52.6112 117.338 51.6717C118.018 50.7646 118.342 49.5335 118.342 48.0108ZM140.119 49.6631C140.119 51.3477 139.536 52.7408 138.337 53.8099C137.041 54.9762 135.226 55.5594 132.893 55.5594C130.754 55.5594 129.036 55.1382 127.708 54.3283L128.453 51.6717C129.847 52.514 131.402 52.9028 133.087 52.9028C134.286 52.9028 135.226 52.6436 135.906 52.0929C136.587 51.5421 136.911 50.8294 136.911 49.9222C136.911 49.1123 136.619 48.432 136.069 47.8812C135.518 47.3304 134.61 46.8121 133.314 46.3261C129.814 45.0302 128.064 43.1188 128.064 40.5918C128.064 38.9395 128.68 37.6112 129.911 36.5745C131.143 35.5378 132.795 35.0194 134.805 35.0194C136.619 35.0194 138.142 35.3434 139.342 35.959L138.531 38.5507C137.397 37.9352 136.133 37.6436 134.707 37.6436C133.573 37.6436 132.698 37.9352 132.05 38.486C131.532 38.9719 131.24 39.5875 131.24 40.3002C131.24 41.0777 131.532 41.7581 132.147 42.2441C132.666 42.73 133.638 43.216 135.064 43.7991C136.781 44.4795 138.045 45.2894 138.855 46.2289C139.73 47.1361 140.119 48.27 140.119 49.6631ZM150.716 43.2808H147.184V50.2786C147.184 52.0605 147.799 52.9352 149.063 52.9352C149.647 52.9352 150.1 52.9028 150.489 52.7732L150.586 55.203C149.971 55.4298 149.128 55.5594 148.091 55.5594C146.827 55.5594 145.855 55.1706 145.142 54.3931C144.429 53.6155 144.073 52.3196 144.073 50.5054V43.2484H141.966V40.851H144.073V38.2268L147.216 37.2872V40.8834H150.748L150.716 43.2808ZM166.595 47.946C166.595 50.149 165.947 51.9633 164.683 53.3888C163.354 54.8466 161.604 55.5918 159.401 55.5918C157.294 55.5918 155.609 54.879 154.345 53.4859C153.082 52.0929 152.466 50.311 152.466 48.1728C152.466 45.9374 153.114 44.1231 154.41 42.6976C155.707 41.2721 157.456 40.5594 159.628 40.5594C161.734 40.5594 163.452 41.2721 164.715 42.6652C165.979 44.0259 166.595 45.8078 166.595 47.946ZM163.29 48.0108C163.29 46.6825 162.998 45.5486 162.447 44.6091C161.766 43.4752 160.827 42.892 159.563 42.892C158.267 42.892 157.294 43.4752 156.614 44.6091C156.031 45.5486 155.771 46.7149 155.771 48.0756C155.771 49.4039 156.063 50.5378 156.614 51.4773C157.294 52.6112 158.267 53.1944 159.53 53.1944C160.762 53.1944 161.702 52.6112 162.415 51.4449C162.998 50.473 163.29 49.3391 163.29 48.0108ZM176.997 43.6695C176.673 43.6047 176.317 43.5723 175.993 43.5723C174.858 43.5723 173.984 43.9935 173.4 44.8358C172.882 45.581 172.59 46.5205 172.59 47.6868V55.2354H169.382V45.3866C169.382 43.8639 169.349 42.3736 169.285 40.851H172.072L172.201 43.6047H172.298C172.622 42.6652 173.173 41.8877 173.886 41.3369C174.567 40.851 175.377 40.5594 176.187 40.5594C176.479 40.5594 176.738 40.5918 176.997 40.6242V43.6695ZM191.321 47.3952C191.321 47.8812 191.288 48.3672 191.191 48.8531H181.599C181.631 50.2786 182.085 51.3801 182.992 52.1253C183.803 52.8056 184.84 53.1296 186.136 53.1296C187.562 53.1296 188.858 52.9028 190.024 52.4492L190.511 54.6523C189.15 55.2354 187.529 55.527 185.682 55.527C183.446 55.527 181.696 54.879 180.432 53.5507C179.168 52.2225 178.52 50.473 178.52 48.27C178.52 46.0993 179.104 44.2851 180.303 42.8596C181.534 41.3045 183.219 40.5594 185.326 40.5594C187.4 40.5594 188.987 41.3369 190.024 42.8596C190.899 44.0907 191.321 45.581 191.321 47.3952ZM188.275 46.5529C188.307 45.6134 188.08 44.7711 187.659 44.0907C187.108 43.1836 186.265 42.7624 185.099 42.7624C184.062 42.7624 183.187 43.1836 182.539 44.0583C182.02 44.7387 181.696 45.581 181.599 46.5529H188.275ZM75.8582 28.2484C74.9832 28.2484 74.2055 28.216 73.5573 28.1188V18.4644C74.4647 18.3348 75.3721 18.27 76.2794 18.27C79.9413 18.27 81.6264 20.0842 81.6264 23.0324C81.6264 26.4017 79.6173 28.2484 75.8582 28.2484ZM76.3767 19.5011C75.8906 19.5011 75.4693 19.5335 75.1128 19.5983V26.9201C75.3073 26.9525 75.6637 26.9525 76.1822 26.9525C78.5803 26.9525 79.9413 25.5918 79.9413 23.0324C79.9413 20.7646 78.7099 19.5011 76.3767 19.5011ZM86.8762 28.3132C84.8022 28.3132 83.4736 26.7581 83.4736 24.6847C83.4736 22.514 84.8346 20.959 87.0058 20.959C89.0474 20.959 90.4085 22.4168 90.4085 24.5875C90.4085 26.7581 88.9826 28.3132 86.8762 28.3132ZM86.941 22.0929C85.8068 22.0929 85.0615 23.162 85.0615 24.6523C85.0615 26.1101 85.8068 27.1793 86.9086 27.1793C88.0104 27.1793 88.7558 26.0453 88.7558 24.6199C88.7882 23.162 88.0428 22.0929 86.941 22.0929ZM102.204 21.0885L100.001 28.1512H98.5424L97.635 25.0734C97.4082 24.3283 97.2137 23.5507 97.0517 22.7732H97.0193C96.8897 23.5507 96.6952 24.3283 96.436 25.0734L95.4638 28.1512H94.0055L91.9315 21.0885H93.5518L94.362 24.4579C94.5564 25.2678 94.7185 26.013 94.8481 26.7257H94.8805C95.0101 26.1425 95.1721 25.3974 95.4638 24.4579L96.4684 21.0885H97.7646L98.7368 24.3931C98.9636 25.203 99.1581 25.9806 99.3201 26.7257H99.3525C99.4497 26.013 99.6118 25.2354 99.8386 24.3931L100.714 21.0885H102.204ZM110.338 28.1512H108.783V24.1015C108.783 22.838 108.297 22.2225 107.357 22.2225C106.417 22.2225 105.769 23.0324 105.769 23.9395V28.1512H104.181V23.0972C104.181 22.4816 104.181 21.8013 104.116 21.0885H105.51L105.574 22.1901H105.607C106.028 21.4449 106.903 20.959 107.843 20.959C109.334 20.959 110.306 22.0929 110.306 23.9395L110.338 28.1512ZM114.681 28.1512H113.093V17.8164H114.681V28.1512ZM120.416 28.3132C118.342 28.3132 117.014 26.7581 117.014 24.6847C117.014 22.514 118.375 20.959 120.546 20.959C122.588 20.959 123.949 22.4168 123.949 24.5875C123.949 26.7581 122.523 28.3132 120.416 28.3132ZM120.481 22.0929C119.347 22.0929 118.602 23.162 118.602 24.6523C118.602 26.1101 119.347 27.1793 120.449 27.1793C121.551 27.1793 122.296 26.0453 122.296 24.6199C122.296 23.162 121.583 22.0929 120.481 22.0929ZM130.138 28.1512L130.009 27.3412H129.976C129.49 27.9892 128.81 28.3132 127.902 28.3132C126.638 28.3132 125.731 27.4384 125.731 26.2397C125.731 24.4903 127.254 23.5831 129.879 23.5831V23.4536C129.879 22.514 129.393 22.0605 128.421 22.0605C127.708 22.0605 127.124 22.2225 126.574 22.5788L126.249 21.5421C126.898 21.1209 127.708 20.9266 128.68 20.9266C130.527 20.9266 131.467 21.8985 131.467 23.8423V26.4341C131.467 27.1469 131.499 27.6976 131.564 28.1188L130.138 28.1512ZM129.911 24.6199C128.161 24.6199 127.286 25.041 127.286 26.0453C127.286 26.7905 127.74 27.1469 128.356 27.1469C129.166 27.1469 129.911 26.5313 129.911 25.7214V24.6199ZM139.082 28.1512L139.017 27.0173H138.985C138.531 27.8596 137.786 28.3132 136.717 28.3132C134.999 28.3132 133.735 26.8229 133.735 24.7171C133.735 22.514 135.032 20.959 136.846 20.959C137.786 20.959 138.467 21.2829 138.855 21.9309H138.888V17.8164H140.476V26.2397C140.476 26.9201 140.508 27.568 140.541 28.1512H139.082ZM138.855 24.0043C138.855 23 138.207 22.1577 137.203 22.1577C136.036 22.1577 135.323 23.1944 135.323 24.6523C135.323 26.0777 136.069 27.0497 137.17 27.0497C138.175 27.0497 138.855 26.1749 138.855 25.1706V24.0043ZM150.424 28.3132C148.35 28.3132 147.022 26.7581 147.022 24.6847C147.022 22.514 148.383 20.959 150.554 20.959C152.596 20.959 153.957 22.4168 153.957 24.5875C153.957 26.7581 152.531 28.3132 150.424 28.3132ZM150.489 22.0929C149.355 22.0929 148.642 23.162 148.642 24.6523C148.642 26.1101 149.387 27.1793 150.489 27.1793C151.591 27.1793 152.336 26.0453 152.336 24.6199C152.304 23.162 151.591 22.0929 150.489 22.0929ZM162.415 28.1512H160.827V24.1015C160.827 22.838 160.341 22.2225 159.401 22.2225C158.461 22.2225 157.845 23.0324 157.845 23.9395V28.1512H156.257V23.0972C156.257 22.4816 156.257 21.8013 156.193 21.0885H157.586L157.651 22.1901H157.683C158.105 21.4449 158.98 20.959 159.919 20.959C161.41 20.959 162.382 22.0929 162.382 23.9395V28.1512H162.415ZM172.979 22.2549H171.261V25.689C171.261 26.5637 171.553 26.9849 172.169 26.9849C172.46 26.9849 172.687 26.9525 172.882 26.9201L172.914 28.1188C172.622 28.2484 172.201 28.2808 171.683 28.2808C170.451 28.2808 169.706 27.6004 169.706 25.8186V22.2549H168.669V21.0885H169.706V19.7926L171.261 19.3391V21.0885H172.979V22.2549ZM181.307 28.1512H179.752V24.1339C179.752 22.8704 179.266 22.2225 178.326 22.2225C177.516 22.2225 176.738 22.7732 176.738 23.9071V28.1836H175.183V17.8164H176.738V22.0605H176.77C177.257 21.2829 177.969 20.8942 178.909 20.8942C180.4 20.8942 181.307 22.0605 181.307 23.9071V28.1512ZM189.83 25.0086H185.099C185.131 26.3369 186.006 27.1145 187.335 27.1145C188.048 27.1145 188.663 26.9849 189.247 26.7905L189.506 27.892C188.825 28.1836 188.048 28.3132 187.14 28.3132C184.937 28.3132 183.608 26.9201 183.608 24.7495C183.608 22.5788 184.937 20.959 186.946 20.959C188.761 20.959 189.895 22.2872 189.895 24.3283C189.895 24.5227 189.895 24.7495 189.83 25.0086ZM188.404 23.8747C188.404 22.7732 187.853 21.9957 186.849 21.9957C185.941 21.9957 185.228 22.7732 185.131 23.8747H188.404Z" fill="white"/>
</g>
<defs>
<filter id="filter0_d" x="0" y="0" width="218.473" height="76" filterUnits="userSpaceOnUse" color-interpolation-filters="sRGB">
<feFlood flood-opacity="0" result="BackgroundImageFix"/>
<feColorMatrix in="SourceAlpha" type="matrix" values="0 0 0 0 0 0 0 0 0 0 0 0 0 0 0 0 0 0 127 0"/>
<feOffset/>
<feGaussianBlur stdDeviation="4"/>
<feColorMatrix type="matrix" values="0 0 0 0 0 0 0 0 0 0 0 0 0 0 0 0 0 0 0.25 0"/>
<feBlend mode="normal" in2="BackgroundImageFix" result="effect1_dropShadow"/>
<feBlend mode="normal" in="SourceGraphic" in2="effect1_dropShadow" result="shape"/>
</filter>
<linearGradient id="paint0_linear" x1="156.508" y1="68.1415" x2="156.508" y2="-797.552" gradientUnits="userSpaceOnUse">
<stop stop-color="#1A1A1A" stop-opacity="0.1"/>
<stop offset="0.123" stop-color="#212121" stop-opacity="0.151"/>
<stop offset="0.308" stop-color="#353535" stop-opacity="0.227"/>
<stop offset="0.532" stop-color="#575757" stop-opacity="0.318"/>
<stop offset="0.783" stop-color="#858585" stop-opacity="0.421"/>
<stop offset="1" stop-color="#B3B3B3" stop-opacity="0.51"/>
</linearGradient>
</defs>
</svg>
