<svg width="215" height="76" viewBox="0 0 215 76" fill="none" xmlns="http://www.w3.org/2000/svg">
<g filter="url(#filter0_d)">
<path d="M199.508 8H15.3657C11.2977 8 8 11.3579 8 15.5V60.5C8 64.6421 11.2977 68 15.3657 68H199.508C203.575 68 206.873 64.6421 206.873 60.5V15.5C206.873 11.3579 203.575 8 199.508 8Z" fill="black"/>
<path d="M81.2714 23.737C81.2946 24.2459 81.216 24.7542 81.0403 25.2312C80.8646 25.7082 80.5956 26.1438 80.2496 26.5117C79.8632 26.9204 79.3966 27.2416 78.8801 27.4543C78.3636 27.6671 77.8089 27.7666 77.2521 27.7464C76.4074 27.7397 75.5833 27.4793 74.8833 26.9978C74.1833 26.5162 73.6384 25.8351 73.3169 25.0396C72.9953 24.2442 72.9116 23.3698 73.076 22.526C73.2404 21.6823 73.6457 20.9067 74.2411 20.2965C74.6324 19.8897 75.1015 19.569 75.6194 19.3542C76.1373 19.1395 76.693 19.0352 77.2521 19.0479C77.8281 19.0459 78.3984 19.1639 78.928 19.3946C79.421 19.5971 79.8599 19.9156 80.2087 20.3241L79.4866 21.0594C79.2147 20.73 78.8712 20.4696 78.4834 20.2986C78.0956 20.1277 77.6741 20.0509 77.2521 20.0744C76.8265 20.0722 76.4049 20.1576 76.0126 20.3255C75.6202 20.4933 75.2651 20.74 74.9687 21.051C74.6722 21.3619 74.4405 21.7305 74.2874 22.1349C74.1343 22.5392 74.0629 22.9709 74.0776 23.4039C74.0686 24.0506 74.248 24.6855 74.593 25.2285C74.9381 25.7715 75.4333 26.1983 76.0163 26.455C76.5993 26.7117 77.2438 26.7869 77.8687 26.6711C78.4936 26.5552 79.0708 26.2535 79.5275 25.804C79.9467 25.3414 80.1885 24.7406 80.2087 24.1115H77.2521V23.1126H81.217C81.2533 23.3186 81.2715 23.5275 81.2715 23.7369L81.2714 23.737Z" fill="white" stroke="white" stroke-width="0.272495" stroke-miterlimit="10"/>
<path d="M87.5116 20.2687H83.8329V22.9046H87.1846V23.9035H83.8329V26.5394H87.5116V27.566H82.7429V19.2421H87.5116V20.2687Z" fill="white" stroke="white" stroke-width="0.272495" stroke-miterlimit="10"/>
<path d="M91.9804 27.566H90.9313V20.2687H88.6423V19.2421H94.3239V20.2687H91.9804V27.566Z" fill="white" stroke="white" stroke-width="0.272495" stroke-miterlimit="10"/>
<path d="M98.3296 27.566V19.2421H99.3787V27.566H98.3296Z" fill="white" stroke="white" stroke-width="0.272495" stroke-miterlimit="10"/>
<path d="M104.038 27.566H102.989V20.2687H100.7V19.2421H106.314V20.2687H104.038V27.566Z" fill="white" stroke="white" stroke-width="0.272495" stroke-miterlimit="10"/>
<path d="M116.955 26.4839C116.158 27.2904 115.08 27.7431 113.957 27.7431C112.834 27.7431 111.756 27.2904 110.96 26.4839C110.185 25.6494 109.754 24.545 109.754 23.3971C109.754 22.2491 110.185 21.1447 110.96 20.3103C111.352 19.9076 111.819 19.588 112.334 19.3699C112.848 19.1518 113.4 19.0396 113.957 19.0396C114.514 19.0396 115.066 19.1518 115.581 19.3699C116.095 19.588 116.562 19.9076 116.955 20.3103C117.732 21.1431 118.165 22.2482 118.165 23.3971C118.165 24.546 117.732 25.651 116.955 26.4839ZM111.736 25.7902C112.326 26.3883 113.125 26.7241 113.957 26.7241C114.79 26.7241 115.588 26.3883 116.178 25.7902C116.76 25.1368 117.082 24.2862 117.082 23.404C117.082 22.5218 116.76 21.6712 116.178 21.0178C115.588 20.4197 114.79 20.0839 113.957 20.0839C113.125 20.0839 112.326 20.4197 111.736 21.0178C111.154 21.6712 110.832 22.5218 110.832 23.404C110.832 24.2862 111.154 25.1368 111.736 25.7902Z" fill="white" stroke="white" stroke-width="0.272495" stroke-miterlimit="10"/>
<path d="M119.639 27.566V19.2421H120.919L124.898 25.7208V24.1116V19.2421H125.933V27.566H124.843L120.688 20.782V22.3913V27.566H119.639Z" fill="white" stroke="white" stroke-width="0.272495" stroke-miterlimit="10"/>
<path d="M109.502 39.7051C108.358 39.7106 107.241 40.061 106.292 40.7122C105.344 41.3634 104.606 42.2862 104.172 43.364C103.738 44.4418 103.627 45.6265 103.853 46.7684C104.08 47.9103 104.633 48.9583 105.444 49.7801C106.255 50.6019 107.287 51.1607 108.409 51.386C109.532 51.6112 110.695 51.4929 111.751 51.0458C112.808 50.5987 113.711 49.843 114.346 48.874C114.981 47.905 115.32 46.7662 115.32 45.6012C115.331 44.8215 115.188 44.0474 114.899 43.3251C114.61 42.6028 114.182 41.9471 113.639 41.397C113.096 40.8468 112.45 40.4135 111.739 40.1229C111.028 39.8322 110.268 39.6901 109.502 39.7051ZM109.502 49.1805C108.798 49.2306 108.096 49.064 107.487 48.7024C106.877 48.3408 106.389 47.8009 106.085 47.1528C105.781 46.5048 105.675 45.7786 105.782 45.0687C105.889 44.3588 106.202 43.6979 106.683 43.1721C107.163 42.6462 107.788 42.2797 108.476 42.1201C109.163 41.9605 109.882 42.0153 110.539 42.2773C111.196 42.5393 111.76 42.9964 112.158 43.5892C112.556 44.182 112.77 44.883 112.772 45.6012C112.794 46.0563 112.726 46.5112 112.573 46.9392C112.419 47.3671 112.183 47.7595 111.878 48.0931C111.573 48.4267 111.206 48.6948 110.798 48.8815C110.39 49.0683 109.949 49.17 109.502 49.1805ZM96.8172 39.7051C95.6725 39.7078 94.5543 40.056 93.6039 40.7055C92.6534 41.355 91.9134 42.2769 91.4772 43.3545C91.041 44.4321 90.9283 45.6172 91.1533 46.76C91.3782 47.9028 91.9308 48.9521 92.7411 49.7753C93.5515 50.5985 94.5833 51.1586 95.7062 51.385C96.829 51.6114 97.9926 51.4938 99.0499 51.0472C100.107 50.6005 101.011 49.8448 101.646 48.8755C102.282 47.9062 102.621 46.7668 102.621 45.6012C102.632 44.8215 102.489 44.0474 102.201 43.3251C101.912 42.6028 101.483 41.9471 100.94 41.397C100.398 40.8468 99.7516 40.4135 99.0409 40.1229C98.3302 39.8322 97.5693 39.6901 96.8036 39.7051H96.8172ZM96.8172 49.1805C96.1133 49.2334 95.41 49.0693 94.7989 48.7096C94.1878 48.3498 93.6972 47.8111 93.3911 47.1635C93.0849 46.5159 92.9773 45.7894 93.0823 45.0786C93.1872 44.3679 93.4999 43.7058 93.9796 43.1785C94.4593 42.6513 95.0838 42.2832 95.7718 42.1224C96.4597 41.9616 97.1793 42.0154 97.8368 42.2768C98.4944 42.5382 99.0594 42.9951 99.4583 43.588C99.8572 44.181 100.072 44.8825 100.074 45.6012C100.095 46.0563 100.028 46.5112 99.8743 46.9392C99.7208 47.3671 99.4847 47.7595 99.1799 48.0931C98.8752 48.4267 98.5079 48.6948 98.0998 48.8815C97.6917 49.0683 97.2509 49.17 96.8036 49.1805H96.8172ZM81.7074 41.5225V44.0197H87.5933C87.501 45.1958 87.0208 46.3057 86.2308 47.1689C85.6419 47.7796 84.934 48.2581 84.1526 48.5735C83.3712 48.8889 82.5336 49.0342 81.6938 49.0002C79.9593 49.0002 78.2958 48.2986 77.0694 47.0497C75.8429 45.8009 75.1539 44.1071 75.1539 42.341C75.1539 40.5749 75.8429 38.8811 77.0694 37.6323C78.2958 36.3834 79.9593 35.6818 81.6938 35.6818C83.353 35.6543 84.9552 36.2979 86.149 37.4715L87.8794 35.7096C87.0735 34.8786 86.1119 34.2208 85.0517 33.7752C83.9915 33.3296 82.8543 33.1052 81.7074 33.1153C80.4961 33.0674 79.2879 33.2688 78.1549 33.7077C77.022 34.1466 75.9877 34.8138 75.1141 35.6694C74.2405 36.5251 73.5455 37.5514 73.0708 38.6871C72.596 39.8228 72.3513 41.0443 72.3513 42.2786C72.3513 43.5128 72.596 44.7344 73.0708 45.8701C73.5455 47.0057 74.2405 48.0321 75.1141 48.8877C75.9877 49.7434 77.022 50.4106 78.1549 50.8495C79.2879 51.2884 80.4961 51.4898 81.7074 51.4418C82.8736 51.4955 84.0376 51.2942 85.121 50.8515C86.2044 50.4088 87.1821 49.7349 87.9884 48.8753C89.4158 47.2784 90.1779 45.1791 90.1139 43.0208C90.1183 42.495 90.0727 41.97 89.9777 41.4531H81.7075L81.7074 41.5225ZM143.441 43.4647C143.086 42.4003 142.421 41.4708 141.536 40.7995C140.65 40.1281 139.585 39.7465 138.482 39.7051C137.736 39.7036 136.999 39.8578 136.314 40.1581C135.63 40.4584 135.013 40.8985 134.502 41.4511C133.992 42.0037 133.598 42.6571 133.345 43.3709C133.092 44.0848 132.985 44.8438 133.032 45.6012C133.015 46.3766 133.152 47.1474 133.435 47.8677C133.717 48.5879 134.14 49.2428 134.676 49.7931C135.213 50.3435 135.853 50.778 136.559 51.0708C137.264 51.3636 138.02 51.5087 138.781 51.4973C139.735 51.5025 140.674 51.267 141.516 50.8119C142.357 50.3567 143.075 49.6961 143.605 48.8892L141.629 47.5018C141.334 48.0024 140.917 48.4164 140.418 48.7033C139.918 48.9903 139.355 49.1404 138.781 49.1389C138.191 49.1618 137.608 49.0034 137.107 48.6842C136.607 48.365 136.212 47.8999 135.975 47.3492L143.727 44.089L143.441 43.4647ZM135.539 45.4347C135.511 45.0056 135.568 44.5752 135.706 44.1687C135.843 43.7622 136.06 43.3878 136.341 43.0674C136.623 42.747 136.965 42.487 137.346 42.3027C137.728 42.1184 138.142 42.0135 138.563 41.9942C139.003 41.9647 139.441 42.0673 139.824 42.2893C140.207 42.5113 140.517 42.8428 140.716 43.2428L135.539 45.4347ZM129.244 51.1505H131.792V33.809H129.244V51.1505ZM125.075 41.023H124.98C124.596 40.5859 124.125 40.2363 123.599 39.9972C123.073 39.7582 122.504 39.635 121.928 39.6357C120.439 39.7093 119.035 40.3633 118.007 41.4623C116.978 42.5613 116.405 44.0209 116.405 45.5388C116.405 47.0566 116.978 48.5163 118.007 49.6153C119.035 50.7143 120.439 51.3683 121.928 51.4418C122.505 51.4517 123.078 51.3326 123.605 51.0929C124.132 50.8532 124.601 50.4988 124.98 50.0545H125.061V51.0118C125.061 53.2731 123.876 54.4801 121.968 54.4801C121.333 54.4649 120.717 54.2577 120.197 53.8846C119.678 53.5116 119.28 52.9896 119.053 52.3853L116.832 53.3286C117.25 54.364 117.962 55.2487 118.877 55.8691C119.793 56.4896 120.869 56.8174 121.968 56.8108C124.952 56.8108 127.418 55.0212 127.418 50.665V40.0519H125.075L125.075 41.023ZM122.159 49.1805C121.28 49.1016 120.462 48.6904 119.867 48.0279C119.271 47.3654 118.94 46.4996 118.94 45.6012C118.94 44.7029 119.271 43.8371 119.867 43.1746C120.462 42.512 121.28 42.1008 122.159 42.0219C122.595 42.0447 123.022 42.156 123.415 42.3494C123.808 42.5427 124.158 42.8142 124.447 43.1477C124.735 43.4813 124.955 43.8702 125.093 44.2916C125.231 44.7129 125.285 45.1582 125.252 45.6012C125.289 46.0461 125.237 46.4941 125.1 46.918C124.962 47.3419 124.741 47.733 124.451 48.0676C124.161 48.4022 123.807 48.6733 123.41 48.8646C123.014 49.0559 122.584 49.1634 122.146 49.1805H122.159ZM155.376 33.809H149.286V51.1505H151.834V44.5746H155.39C156.116 44.6268 156.845 44.526 157.532 44.2787C158.218 44.0313 158.847 43.6427 159.379 43.1369C159.911 42.6312 160.335 42.0192 160.625 41.3392C160.915 40.6591 161.064 39.9256 161.063 39.1843C161.062 38.443 160.911 37.7099 160.62 37.0306C160.328 36.3513 159.902 35.7404 159.369 35.2361C158.835 34.7318 158.205 34.3448 157.519 34.0993C156.832 33.8537 156.102 33.7549 155.376 33.809H155.376ZM155.376 42.1329H151.82V36.2229H155.431C156.204 36.2229 156.946 36.5357 157.493 37.0925C158.039 37.6492 158.347 38.4044 158.347 39.1918C158.347 39.9792 158.039 40.7343 157.493 41.2911C156.946 41.8479 156.204 42.1607 155.431 42.1607L155.376 42.1329ZM171.086 39.6357C170.158 39.5793 169.235 39.8 168.429 40.2708C167.623 40.7415 166.969 41.4418 166.549 42.2855L168.81 43.2428C169.033 42.8243 169.371 42.4808 169.782 42.2542C170.194 42.0276 170.661 41.9276 171.127 41.9664C171.45 41.928 171.778 41.9555 172.091 42.0474C172.404 42.1392 172.695 42.2936 172.949 42.5015C173.203 42.7095 173.413 42.9667 173.568 43.2584C173.723 43.55 173.819 43.8701 173.852 44.2V44.3805C173.033 43.9393 172.121 43.7106 171.195 43.7146C168.756 43.7146 166.29 45.1019 166.29 47.613C166.314 48.1484 166.443 48.6734 166.67 49.1571C166.897 49.6408 167.216 50.0733 167.61 50.4289C168.004 50.7846 168.464 51.0563 168.962 51.2279C169.461 51.3995 169.989 51.4676 170.514 51.4281C171.155 51.475 171.797 51.3452 172.373 51.0523C172.948 50.7593 173.435 50.3141 173.783 49.7633H173.865V51.1506H176.317V44.4776C176.317 41.4394 174.056 39.6775 171.154 39.6775L171.086 39.6357ZM170.772 49.1389C170.318 49.2036 169.857 49.0864 169.486 48.8122C169.115 48.5379 168.863 48.1279 168.783 47.6683C168.783 46.281 170.227 45.8232 171.508 45.8232C172.317 45.8028 173.117 46.0041 173.824 46.4059C173.739 47.157 173.39 47.8514 172.842 48.3613C172.294 48.8711 171.583 49.1621 170.84 49.1805L170.772 49.1389ZM185.255 40.0519L182.34 47.5712H182.258L179.233 40.0519H176.509L181.046 50.5678L178.457 56.4084H181.114L188.09 40.0519H185.269H185.255ZM162.352 51.1505H164.9V33.809H162.352V51.1505Z" fill="white"/>
<path d="M30.887 19.9913C30.4429 20.5338 30.2188 21.2285 30.2603 21.9335V52.6211C30.2188 53.3261 30.4429 54.0207 30.887 54.5633L30.9824 54.6603L47.8635 37.4853V37.0691L30.9824 19.8942L30.887 19.9913Z" fill="url(#paint0_linear)"/>
<path d="M53.4497 43.2149L47.8635 37.4853V37.0691L53.4497 31.3395L53.5724 31.409L60.2622 35.2796C62.1697 36.3756 62.1697 38.1791 60.2622 39.289L53.5996 43.1457L53.4497 43.2149Z" fill="url(#paint1_linear)"/>
<path d="M53.6132 43.1318L47.8635 37.2773L30.8871 54.5633C31.2759 54.9114 31.7718 55.1102 32.2893 55.1254C32.8067 55.1406 33.3132 54.9713 33.721 54.6467L53.6268 43.132" fill="url(#paint2_linear)"/>
<path d="M53.6131 31.4227L33.7074 19.908C33.2995 19.5833 32.7931 19.414 32.2757 19.4292C31.7582 19.4443 31.2622 19.6431 30.8734 19.9911L47.8635 37.2771L53.6131 31.4227Z" fill="url(#paint3_linear)"/>
<path opacity="0.2" d="M53.4497 43.007L33.7074 54.4523C33.3141 54.7518 32.8361 54.9136 32.3449 54.9136C31.8538 54.9136 31.3758 54.7518 30.9825 54.4523L30.8871 54.5494L30.9825 54.6464C31.3749 54.948 31.8532 55.1112 32.3449 55.1112C32.8366 55.1112 33.315 54.948 33.7074 54.6464L53.6132 43.1316L53.4497 43.007Z" fill="black"/>
<path opacity="0.12" d="M30.887 54.369C30.4429 53.8264 30.2188 53.1318 30.2603 52.4268V52.6348C30.2188 53.3399 30.4429 54.0345 30.887 54.5771L30.9824 54.48L30.887 54.369Z" fill="black"/>
<path opacity="0.12" d="M60.2621 39.0809L53.4497 43.007L53.5725 43.132L60.2622 39.2752C60.6418 39.0937 60.9676 38.8134 61.2068 38.4626C61.4461 38.1119 61.5902 37.7031 61.6247 37.2775C61.5481 37.6641 61.3854 38.0278 61.1492 38.3404C60.913 38.6531 60.6096 38.9064 60.2622 39.081L60.2621 39.0809Z" fill="black"/>
<path opacity="0.25" d="M33.7074 20.1022L60.262 35.4737C60.6094 35.6483 60.9128 35.9017 61.149 36.2143C61.3852 36.527 61.5479 36.8906 61.6245 37.2773C61.59 36.8517 61.4459 36.4429 61.2067 36.0922C60.9675 35.7414 60.6416 35.4611 60.262 35.2795L33.7074 19.908C31.7999 18.812 30.2467 19.7275 30.2467 21.9474V22.1555C30.2876 19.9218 31.8135 19.0062 33.7074 20.1022V20.1022Z" fill="white"/>
</g>
<defs>
<filter id="filter0_d" x="0" y="0" width="214.873" height="76" filterUnits="userSpaceOnUse" color-interpolation-filters="sRGB">
<feFlood flood-opacity="0" result="BackgroundImageFix"/>
<feColorMatrix in="SourceAlpha" type="matrix" values="0 0 0 0 0 0 0 0 0 0 0 0 0 0 0 0 0 0 127 0"/>
<feOffset/>
<feGaussianBlur stdDeviation="4"/>
<feColorMatrix type="matrix" values="0 0 0 0 0 0 0 0 0 0 0 0 0 0 0 0 0 0 0.25 0"/>
<feBlend mode="normal" in2="BackgroundImageFix" result="effect1_dropShadow"/>
<feBlend mode="normal" in="SourceGraphic" in2="effect1_dropShadow" result="shape"/>
</filter>
<linearGradient id="paint0_linear" x1="46.3647" y1="21.6144" x2="23.0893" y2="44.473" gradientUnits="userSpaceOnUse">
<stop stop-color="#00A0FF"/>
<stop offset="0.01" stop-color="#00A1FF"/>
<stop offset="0.26" stop-color="#00BEFF"/>
<stop offset="0.51" stop-color="#00D2FF"/>
<stop offset="0.76" stop-color="#00DFFF"/>
<stop offset="1" stop-color="#00E3FF"/>
</linearGradient>
<linearGradient id="paint1_linear" x1="62.7554" y1="37.2772" x2="29.7971" y2="37.2772" gradientUnits="userSpaceOnUse">
<stop stop-color="#FFE000"/>
<stop offset="0.41" stop-color="#FFBD00"/>
<stop offset="0.78" stop-color="#FFA500"/>
<stop offset="1" stop-color="#FF9C00"/>
</linearGradient>
<linearGradient id="paint2_linear" x1="50.4931" y1="40.4682" x2="18.9231" y2="71.4592" gradientUnits="userSpaceOnUse">
<stop stop-color="#FF3A44"/>
<stop offset="1" stop-color="#C31162"/>
</linearGradient>
<linearGradient id="paint3_linear" x1="26.6089" y1="9.78053" x2="40.7017" y2="23.621" gradientUnits="userSpaceOnUse">
<stop stop-color="#32A071"/>
<stop offset="0.07" stop-color="#2DA771"/>
<stop offset="0.48" stop-color="#15CF74"/>
<stop offset="0.8" stop-color="#06E775"/>
<stop offset="1" stop-color="#00F076"/>
</linearGradient>
</defs>
</svg>
