<svg width="20" height="14" viewBox="0 0 20 14" fill="none" xmlns="http://www.w3.org/2000/svg">
<path d="M19.6491 6.05263L13.8596 0.263158C13.5088 -0.0877193 12.807 -0.0877193 12.4561 0.263158C11.9298 0.614035 11.9298 1.31579 12.4561 1.66667L16.4912 5.70175H1.05263C0.526316 5.70175 0 6.22807 0 6.75439C0 7.2807 0.526316 7.80702 1.05263 7.80702H16.4912L12.4561 11.8421C11.9298 12.193 11.9298 12.8947 12.4561 13.2456C12.807 13.5965 13.5088 13.5965 13.8596 13.2456L19.6491 7.45614C19.8246 7.2807 20 6.92982 20 6.75439C19.8246 6.40351 19.8246 6.22807 19.6491 6.05263Z" fill="white"/>
</svg>
